<svg width="50" height="50" viewBox="0 0 50 50" fill="none" xmlns="http://www.w3.org/2000/svg">
<path d="M32.578 2.20996C28.4145 2.20996 25.013 5.63746 25.013 9.81096C25.013 13.9845 28.4145 17.3935 32.578 17.3935C36.0865 17.3935 39.04 14.962 39.891 11.7025H46.8125C47.0619 11.702 47.3087 11.6524 47.5389 11.5566C47.7692 11.4607 47.9782 11.3204 48.1543 11.1438C48.3303 10.9671 48.4698 10.7575 48.5648 10.5269C48.6598 10.2964 48.7085 10.0493 48.708 9.79996C48.7083 9.29683 48.5089 8.81416 48.1536 8.45793C47.7983 8.1017 47.3161 7.90102 46.813 7.89996H39.883C39.0265 4.64696 36.08 2.20996 32.578 2.20996ZM3.19549 7.89996C2.69193 7.90102 2.20941 8.10204 1.85405 8.45882C1.49868 8.81559 1.29956 9.2989 1.30049 9.80246C1.30023 10.3056 1.49963 10.7883 1.85493 11.1445C2.21023 11.5007 2.69237 11.7014 3.19549 11.7025H21.394C21.289 11.0855 21.22 10.456 21.22 9.81096C21.22 9.15896 21.287 8.52346 21.394 7.90046L3.19549 7.89996ZM17.4305 17.3935C13.9215 17.3935 10.9705 19.8385 10.121 23.1025H3.19599C3.13553 23.0996 3.07496 23.0996 3.01449 23.1025C2.51179 23.1384 2.04397 23.3726 1.71391 23.7535C1.38386 24.1344 1.2186 24.6308 1.25449 25.1335C1.28821 25.6213 1.50883 26.0774 1.8704 26.4066C2.23197 26.7359 2.70662 26.9129 3.19549 26.901H10.125C10.98 30.1565 13.927 32.592 17.43 32.592C21.594 32.592 25.0135 29.168 25.0135 24.9945C25.0135 20.821 21.5935 17.3935 17.4305 17.3935ZM28.622 23.1025C28.727 23.7195 28.7955 24.3495 28.7955 24.9945C28.7955 25.6445 28.7285 26.2795 28.622 26.901H46.8125C47.3156 26.9115 47.8023 26.7219 48.1656 26.3736C48.5288 26.0254 48.7389 25.5471 48.7495 25.044C48.7554 24.7878 48.7094 24.533 48.6142 24.2951C48.519 24.0571 48.3766 23.8409 48.1956 23.6595C48.0146 23.4781 47.7988 23.3352 47.5611 23.2395C47.3234 23.1437 47.0687 23.0971 46.8125 23.1025H28.622ZM32.578 32.592C28.4145 32.592 25.013 36.0195 25.013 40.193C25.013 44.3665 28.415 47.79 32.5785 47.79C36.082 47.79 39.032 45.355 39.8875 42.099H46.813C47.3162 42.0872 47.794 41.876 48.1415 41.5119C48.489 41.1478 48.6777 40.6606 48.666 40.1575C48.6557 39.6689 48.4573 39.2031 48.1121 38.8572C47.7669 38.5112 47.3016 38.3118 46.813 38.3005H39.891C39.0405 35.037 36.087 32.592 32.578 32.592ZM3.01449 38.301C2.51179 38.3369 2.04397 38.5711 1.71391 38.952C1.38386 39.3329 1.2186 39.8293 1.25449 40.332C1.28821 40.8198 1.50883 41.2759 1.8704 41.6051C2.23197 41.9344 2.70662 42.1114 3.19549 42.0995H21.4015C21.2895 41.47 21.2313 40.8322 21.2275 40.193C21.2275 39.548 21.2965 38.918 21.4015 38.301H3.19499C3.1347 38.2981 3.07479 38.2981 3.01449 38.301Z" fill="black"/>
</svg>
